<?xml version="1.0" encoding="iso-8859-1"?>
<!-- Generator: Adobe Illustrator 15.0.0, SVG Export Plug-In . SVG Version: 6.00 Build 0)  -->
<!DOCTYPE svg PUBLIC "-//W3C//DTD SVG 1.1//EN" "http://www.w3.org/Graphics/SVG/1.1/DTD/svg11.dtd">
<svg version="1.1" id="Layer_1" xmlns="http://www.w3.org/2000/svg" xmlns:xlink="http://www.w3.org/1999/xlink" x="0px" y="0px"
	 width="612px" height="792px" viewBox="0 0 612 792" style="enable-background:new 0 0 612 792;" xml:space="preserve">
<path d="M296.097,380.597c13.344,27.792-13.337,81.163,32.244,86.718c-6.665,10.008-28.9,10.008-42.245,5.563
	c-17.79-4.445-33.354-20.017-40.027-36.689c-12.229-30.021,5.84-76.854-13.343-98.948
	C260.524,337.24,287.206,355.029,296.097,380.597L296.097,380.597z"/>
<path d="M378.375,337.24c-22.236,29.039,1.383,70.731-12.509,104.085c-4.863,11.125-11.954,17.091-20.845,19.325
	c-12.235,3.336-22.935-0.563-30.018-10.016c-9.59-14.169-8.2-64.893,7.782-87.826C335.986,344.047,356.139,336.125,378.375,337.24
	L378.375,337.24z"/>
<path d="M305.414,380.367c3.26-20.387,5.76-31.089,20.435-40.062c0,0-3.313-17.119-20.435-26.092
	c-17.935,9.786-22.069,26.092-22.069,26.092C298.02,349.278,302.153,359.979,305.414,380.367L305.414,380.367z"/>
<path d="M193.077,445.665c0.981-0.212,1.088,0.45,1.154,1.156c17.23,21.659,47.355,30.758,68.167,51.99
	c16.145,16.473,27.874,34.162,28.885,68.169C256.969,530.203,192.302,520.412,193.077,445.665z"/>
<path d="M425.667,490.684c2.14,29.386-12.605,55.353-27.729,70.477c-20.133,20.135-51.835,28.635-69.324,53.149
	c0.449-50.948,26.954-73.749,62.392-94.742C404.697,511.457,420.908,505.023,425.667,490.684z"/>
<rect x="302" y="491" width="15" height="163"/>
</svg>
