<?xml version="1.0" encoding="UTF-8" standalone="no"?>
<!-- Generator: Adobe Illustrator 15.0.0, SVG Export Plug-In . SVG Version: 6.00 Build 0)  -->

<svg
   xmlns:dc="http://purl.org/dc/elements/1.1/"
   xmlns:cc="http://creativecommons.org/ns#"
   xmlns:rdf="http://www.w3.org/1999/02/22-rdf-syntax-ns#"
   xmlns:svg="http://www.w3.org/2000/svg"
   xmlns="http://www.w3.org/2000/svg"
   xmlns:sodipodi="http://sodipodi.sourceforge.net/DTD/sodipodi-0.dtd"
   xmlns:inkscape="http://www.inkscape.org/namespaces/inkscape"
   version="1.1"
   id="Layer_1"
   x="0px"
   y="0px"
   width="500"
   height="500"
   viewBox="0 0 500 500"
   xml:space="preserve"
   inkscape:version="0.48.2 r9819"
   sodipodi:docname="tulip.svg"><metadata
   id="metadata19"><rdf:RDF><cc:Work
       rdf:about=""><dc:format>image/svg+xml</dc:format><dc:type
         rdf:resource="http://purl.org/dc/dcmitype/StillImage" /><dc:title></dc:title></cc:Work></rdf:RDF></metadata><defs
   id="defs17" /><sodipodi:namedview
   pagecolor="#ffffff"
   bordercolor="#666666"
   borderopacity="1"
   objecttolerance="10"
   gridtolerance="10"
   guidetolerance="10"
   inkscape:pageopacity="0"
   inkscape:pageshadow="2"
   inkscape:window-width="640"
   inkscape:window-height="480"
   id="namedview15"
   showgrid="false"
   inkscape:zoom="0.2979798"
   inkscape:cx="306"
   inkscape:cy="396"
   inkscape:window-x="0"
   inkscape:window-y="0"
   inkscape:window-maximized="0"
   inkscape:current-layer="Layer_1" />
<path
   d="m 218.51634,204.83348 c 39.40729,82.07491 -39.38663,239.68933 95.22248,256.09427 -19.68297,29.55548 -85.34703,29.55548 -124.75728,16.42857 C 136.44438,464.22941 90.481011,418.24242 70.77441,369.00693 34.659915,280.34937 88.021008,142.04287 31.370068,76.795208 113.46269,76.792255 192.25957,129.32646 218.51634,204.83348 l 0,0 z"
   id="path3"
   inkscape:connector-curvature="0" />
<path
   d="m 461.49846,76.792255 c -65.66701,85.757525 4.08426,208.881705 -36.94139,307.382225 -14.36133,32.85418 -35.30236,50.47288 -61.55913,57.0703 -36.13221,9.85182 -67.73128,-1.66264 -88.64869,-29.5791 -28.32104,-41.84367 -24.21612,-191.64102 22.98168,-259.3664 38.98499,-55.404697 98.50052,-78.799826 164.16753,-75.507025 l 0,0 z"
   id="path5"
   inkscape:connector-curvature="0" />
<path
   d="m 246.03116,204.15425 c 9.62738,-60.20658 17.01034,-91.81156 60.34832,-118.310484 0,0 -9.78389,-50.555569 -60.34832,-77.0544948 -52.96537,28.8998648 -65.17383,77.0544948 -65.17383,77.0544948 43.33798,26.498924 55.54349,58.100954 65.17383,118.310484 l 0,0 z"
   id="path7"
   inkscape:connector-curvature="0" />



</svg>